<svg width="640" height="613" viewBox="0 0 640 613" fill="none" xmlns="http://www.w3.org/2000/svg">
<path fill-rule="evenodd" clip-rule="evenodd" d="M569.258 445.452C572.381 445.885 574.817 446.292 576.441 446.563C577.678 446.77 578.443 446.898 578.68 446.898H640L640 569.706H578.68C578.443 569.706 577.678 569.579 576.441 569.372C563.382 567.189 497.71 556.212 445.105 593.917C407.567 620.851 381.383 673.391 381.383 767.433V828.91H258.744V767.433C258.744 745.515 259.897 725.108 262.052 706.102H381.383V644.625C381.383 550.583 407.567 498.043 445.105 471.108C464.594 457.139 485.877 449.852 505.613 446.324C532.005 443.544 554.569 444.298 569.258 445.452Z" fill="#F6F7F7"/>
<path fill-rule="evenodd" clip-rule="evenodd" d="M582.244 201.296H640V324.249H578.68C575.945 324.249 502.695 307.182 445.105 348.46C407.567 375.394 381.383 427.934 381.383 521.976V583.453H258.744V521.976C258.744 371.009 313.433 291.692 373.758 248.463C456.622 188.996 558.545 198.373 582.244 201.296Z" fill="#F6F7F7"/>
<path fill-rule="evenodd" clip-rule="evenodd" d="M377.948 706.105C380.103 725.112 381.256 745.519 381.256 767.437V828.914H258.617V767.437C258.617 673.395 232.433 620.855 194.896 593.921C142.29 556.216 76.6182 567.193 63.5595 569.376C62.3221 569.582 61.5571 569.71 61.3204 569.71H9.15527e-05V446.902H61.3204C61.5571 446.902 62.3221 446.774 63.5595 446.567C65.1828 446.296 67.6192 445.888 70.7425 445.456C85.4306 444.302 107.995 443.548 134.387 446.328C154.123 449.856 175.406 457.143 194.896 471.112C232.433 498.046 258.617 550.587 258.617 644.629V706.105H377.948Z" fill="#F6F7F7"/>
<path fill-rule="evenodd" clip-rule="evenodd" d="M57.7557 201.296C81.4547 198.373 183.378 188.996 266.242 248.463C326.567 291.692 381.256 371.009 381.256 521.976V583.453H258.617V521.976C258.617 427.934 232.433 375.394 194.895 348.46C137.305 307.182 64.0548 324.249 61.3203 324.249H0L0 201.296H57.7557Z" fill="#F6F7F7"/>
<path d="M258.79 828.914H381.461L381.461 27.5994H258.79L258.79 828.914Z" fill="#F6F7F7"/>
<path fill-rule="evenodd" clip-rule="evenodd" d="M125.918 123.559L126.081 81.4088L125.267 0.596954L514.418 0.596954V123.559L125.918 123.559Z" fill="#F6F7F7"/>
</svg>
