<svg width="294" height="148" viewBox="0 0 294 148" fill="none" xmlns="http://www.w3.org/2000/svg">
<g opacity="0.1">
<path fill-rule="evenodd" clip-rule="evenodd" d="M399.996 -1.64498C401.08 -2.27696 401.95 -2.75698 402.55 -3.0878C403.057 -3.36786 403.371 -3.541 403.457 -3.6089L425.662 -21.1905L460.91 23.3261L438.691 40.9184C438.606 40.9863 438.292 41.1595 437.784 41.4395C432.426 44.3951 405.482 59.2585 397.238 88.0124C391.365 108.541 396.95 135.09 423.931 169.164L441.568 191.44L397.132 226.624L379.494 204.349C373.201 196.4 367.759 188.668 363.085 181.156L406.333 146.912L388.696 124.637C361.716 90.5625 356.13 64.0134 362.004 43.485C365.024 32.949 370.556 24.278 376.616 17.3745C385.646 8.50437 394.3 2.15504 399.996 -1.64498Z" fill="#AEABA8"/>
<path fill-rule="evenodd" clip-rule="evenodd" d="M334.263 -93.5967L355.19 -110.166L390.464 -65.6163L368.246 -48.0239C367.255 -47.2394 335.817 -32.4086 326.793 -0.930029C320.919 19.5984 326.505 46.1475 353.485 80.2221L371.122 102.497L326.686 137.681L309.049 115.406C265.738 60.7057 262.798 16.2768 272.253 -16.6935C285.217 -62.0133 324.837 -87.8569 334.263 -93.5967Z" fill="#AEABA8"/>
<path fill-rule="evenodd" clip-rule="evenodd" d="M193.774 162.424L215.984 144.838C216.069 144.77 216.31 144.504 216.699 144.075C217.231 143.487 218.04 142.593 219.11 141.478C224.083 136.874 231.939 130.231 242.134 123.754C250.329 119.329 260.187 115.822 271.328 115.289C292.656 114.279 317.217 125.804 344.197 159.878L361.835 182.153L405.082 147.91C411.313 154.177 417.582 161.237 423.868 169.175L441.505 191.451L397.069 226.635L379.432 204.36C352.452 170.285 327.891 158.76 306.562 159.77C276.684 161.2 256.039 184.019 251.933 188.556C251.544 188.986 251.304 189.252 251.218 189.32L229 206.912L193.774 162.424Z" fill="#AEABA8"/>
<path fill-rule="evenodd" clip-rule="evenodd" d="M144.246 56.885C151.994 49.0267 186.234 16.388 233.319 14.1618C267.579 12.5186 310.15 25.5677 353.461 80.2683L371.099 102.543L326.663 137.727L309.025 115.452C282.045 81.3778 257.484 69.8529 236.156 70.8628C203.447 72.4287 181.802 99.6279 180.812 100.412L158.593 118.005L123.319 73.4547L144.246 56.885Z" fill="#AEABA8"/>
<path d="M397.169 226.604L441.617 191.41L211.726 -98.9326L167.278 -63.7392L397.169 226.604Z" fill="#AEABA8"/>
<path fill-rule="evenodd" clip-rule="evenodd" d="M146.644 9.15805L134.61 -6.16094L111.131 -35.2082L252.133 -146.853L287.41 -102.3L146.644 9.15805Z" fill="#AEABA8"/>
</g>
</svg>
