<svg width="920" height="829" viewBox="0 0 920 829" fill="none" xmlns="http://www.w3.org/2000/svg">
<path fill-rule="evenodd" clip-rule="evenodd" d="M1318.95 -208.166L1404.06 -275.555L1547.52 -94.3692L1457.16 -22.8207C1453.13 -19.63 1325.27 40.6873 1288.57 168.711C1264.68 252.201 1287.4 360.177 1397.13 498.759L1468.86 589.352L1288.14 732.447L1216.41 641.853C1040.26 419.385 1028.3 238.692 1066.76 104.601C1119.48 -79.7155 1280.62 -184.822 1318.95 -208.166Z" fill="#F6F7F7"/>
<path fill-rule="evenodd" clip-rule="evenodd" d="M747.586 833.073L837.91 761.555C838.258 761.279 839.236 760.198 840.819 758.449C842.986 756.054 846.287 752.405 850.657 747.857C870.875 729.14 902.801 702.147 944.226 675.825C977.562 657.821 1017.67 643.546 1063 641.376C1149.74 637.269 1249.63 684.141 1359.36 822.723L1431.09 913.316L1606.98 774.047C1632.32 799.531 1657.82 828.247 1683.38 860.531L1755.11 951.124L1574.39 1094.22L1502.66 1003.63C1392.93 865.043 1293.04 818.171 1206.3 822.278C1084.78 828.096 1000.82 920.898 984.119 939.351C982.537 941.1 981.559 942.181 981.21 942.457L890.847 1014.01L747.586 833.073Z" fill="#F6F7F7"/>
<path fill-rule="evenodd" clip-rule="evenodd" d="M546.148 403.841C577.66 371.88 716.915 239.138 908.411 230.084C1047.75 223.401 1220.88 276.473 1397.03 498.941L1468.76 589.534L1288.04 732.629L1216.31 642.035C1106.58 503.453 1006.69 456.581 919.95 460.689C786.921 467.057 698.892 577.677 694.863 580.868L604.5 652.416L461.038 471.23L546.148 403.841Z" fill="#F6F7F7"/>
<path d="M1574.79 1094.1L1755.56 950.963L820.59 -229.867L639.82 -86.7349L1574.79 1094.1Z" fill="#F6F7F7"/>
</svg>
