<svg width="25" height="32" viewBox="0 0 25 32" fill="none" xmlns="http://www.w3.org/2000/svg">
<g id="Group">
<g id="Group_2">
<path id="Subtract" fill-rule="evenodd" clip-rule="evenodd" d="M2.68932 14.5904C2.57165 14.5741 2.47979 14.5587 2.41844 14.5485C2.37136 14.5406 2.34225 14.5358 2.33325 14.5358H0V9.86273H2.33324C2.34225 9.86273 2.37136 9.86759 2.41844 9.87546C2.91533 9.95852 5.41415 10.3762 7.41579 8.94153C8.84409 7.91667 9.84041 5.91751 9.84041 2.3392V0H14.5068V2.3392C14.5068 3.17323 14.463 3.9498 14.3809 4.67303H9.84041V7.01222C9.84041 10.5905 8.84409 12.5897 7.41579 13.6146C6.67487 14.1456 5.86583 14.4229 5.11541 14.5572C4.10889 14.6634 3.24852 14.6345 2.68932 14.5904Z" fill="#184A4E"/>
</g>
<g id="Group_3">
<path id="Vector" fill-rule="evenodd" clip-rule="evenodd" d="M2.19761 23.8814H0V19.2031H2.33324C2.43729 19.2031 5.22448 19.8525 7.41579 18.2819C8.84409 17.257 9.84041 15.2578 9.84041 11.6795V9.34033H14.5068V11.6795C14.5068 17.4239 12.4259 20.4419 10.1305 22.0868C6.97756 24.3495 3.09936 23.9927 2.19761 23.8814Z" fill="#184A4E"/>
</g>
<path id="Subtract_2" fill-rule="evenodd" clip-rule="evenodd" d="M9.97136 4.67313C9.88933 3.94987 9.84546 3.17327 9.84546 2.3392V0H14.5119V2.3392C14.5119 5.91751 15.5082 7.91667 16.9365 8.94153C18.9381 10.3762 21.437 9.95852 21.9338 9.87546C21.9809 9.86759 22.01 9.86273 22.019 9.86273H24.3523V14.5359H22.019C22.01 14.5359 21.9809 14.5407 21.9338 14.5486C21.8728 14.5588 21.7815 14.5741 21.6646 14.5903C21.1052 14.6344 20.2436 14.6635 19.2355 14.5571C18.4855 14.4226 17.677 14.1454 16.9365 13.6147C15.5082 12.5898 14.5119 10.5906 14.5119 7.01232V4.67313H9.97136Z" fill="#184A4E"/>
<g id="Group_4">
<path id="Vector_2" fill-rule="evenodd" clip-rule="evenodd" d="M22.1547 23.8814C21.2529 23.9927 17.3747 24.3495 14.2218 22.0868C11.9264 20.4419 9.84547 17.4239 9.84547 11.6795V9.34033H14.5119V11.6795C14.5119 15.2578 15.5082 17.257 16.9365 18.2819C19.1278 19.8525 21.915 19.2031 22.0191 19.2031H24.3523V23.8814H22.1547Z" fill="#184A4E"/>
</g>
<g id="Group_5">
<path id="Vector_3" d="M14.505 0H9.8374V30.4901H14.505V0Z" fill="#184A4E"/>
</g>
<g id="Group_6">
<path id="Vector_4" fill-rule="evenodd" clip-rule="evenodd" d="M19.5607 26.8389L19.5545 28.4427L19.5854 31.5176H4.7782V26.8389H19.5607Z" fill="#184A4E"/>
</g>
</g>
</svg>
