<svg width="50" height="50" viewBox="0 0 50 50" fill="none" xmlns="http://www.w3.org/2000/svg">
<rect x="0.5" y="0.5" width="49" height="49" rx="8.5" stroke="#D5D7DA"/>
<g clip-path="url(#clip0_255_4228)">
<rect x="1" y="1" width="48" height="48" rx="8" fill="white"/>
<g opacity="0.14" clip-path="url(#clip1_255_4228)">
<path fill-rule="evenodd" clip-rule="evenodd" d="M24.9417 1H25.0582V3.94185C27.8394 3.94938 30.4937 4.49604 32.9223 5.48282V1H33.0388V5.53057C35.1008 6.38289 36.9979 7.55323 38.669 8.98047H40.9029V1H41.0194V8.98047H49V9.09697H41.0194V11.3309C42.4467 13.002 43.617 14.899 44.4694 16.9609H49V17.0774H44.5171C45.5039 19.506 46.0506 22.1603 46.0582 24.9414H49V25.0579H46.0582C46.0507 27.839 45.5041 30.4933 44.5174 32.9219H49V33.0384H44.4697C43.6173 35.1006 42.4468 36.9979 41.0194 38.6691V40.9023H49V41.0188H41.0194V49H40.9029V41.0188H38.6698C36.9986 42.4464 35.1012 43.617 33.0388 44.4695V49H32.9223V44.5172C30.4937 45.504 27.8394 46.0507 25.0582 46.0582V49H24.9417V46.0582C22.1606 46.0507 19.5063 45.504 17.0777 44.5172V49H16.9612V44.4695C14.8988 43.617 13.0015 42.4464 11.3302 41.0188H9.09706V49H8.98056V41.0188H1V40.9023H8.98056V38.6691C7.55316 36.9979 6.38271 35.1006 5.53035 33.0384H1V32.9219H5.48261C4.4959 30.4933 3.94931 27.839 3.94183 25.0579H1V24.9414H3.94183C3.94941 22.1603 4.4961 19.506 5.4829 17.0774H1V16.9609H5.53065C6.38298 14.899 7.55333 13.002 8.98056 11.3309V9.09697H1V8.98047H8.98056V1H9.09706V8.98047H11.331C13.0021 7.55323 14.8992 6.38289 16.9612 5.53057V1H17.0777V5.48282C19.5063 4.49604 22.1606 3.94938 24.9417 3.94185V1ZM24.9417 4.05836C22.1594 4.06594 19.5046 4.61612 17.0777 5.60867V8.98047H24.9417V4.05836ZM16.9612 5.65673C14.9706 6.48493 13.1353 7.61145 11.5111 8.98047H16.9612V5.65673ZM11.1958 9.09697H9.09706V11.1957C9.74665 10.448 10.4481 9.74655 11.1958 9.09697ZM9.09706 11.374C9.79678 10.5581 10.5582 9.79668 11.3741 9.09697H16.9612V16.9609H9.09706V11.374ZM8.98056 11.511C7.61155 13.1352 6.48503 14.9704 5.65681 16.9609H8.98056V11.511ZM5.60875 17.0774C4.61618 19.5043 4.06596 22.1591 4.05833 24.9414H8.98056V17.0774H5.60875ZM4.05833 25.0579C4.06586 27.8402 4.61598 30.495 5.60845 32.9219H8.98056V25.0579H4.05833ZM5.65651 33.0384C6.48475 35.0292 7.61138 36.8647 8.98056 38.4891V33.0384H5.65651ZM9.09706 38.8044V40.9023H11.1949C10.4476 40.253 9.7464 39.5518 9.09706 38.8044ZM11.3732 40.9023C10.5577 40.2028 9.79654 39.4417 9.09706 38.6261V33.0384H16.9612V40.9023H11.3732ZM11.5102 41.0188C13.1346 42.3882 14.9702 43.515 16.9612 44.3433V41.0188H11.5102ZM17.0777 44.3914C19.5046 45.3839 22.1594 45.9341 24.9417 45.9417V41.0188H17.0777V44.3914ZM25.0582 45.9417C27.8406 45.9341 30.4954 45.3839 32.9223 44.3914V41.0188H25.0582V45.9417ZM33.0388 44.3433C35.0298 43.515 36.8654 42.3882 38.4898 41.0188H33.0388V44.3433ZM38.8051 40.9023H40.9029V38.8044C40.2536 39.5518 39.5524 40.253 38.8051 40.9023ZM40.9029 38.6261C40.2035 39.4417 39.4423 40.2028 38.6268 40.9023H33.0388V33.0384H40.9029V38.6261ZM41.0194 38.4891C42.3886 36.8647 43.5153 35.0292 44.3435 33.0384H41.0194V38.4891ZM44.3916 32.9219C45.384 30.495 45.9341 27.8402 45.9417 25.0579H41.0194V32.9219H44.3916ZM45.9417 24.9414C45.934 22.1591 45.3838 19.5043 44.3913 17.0774H41.0194V24.9414H45.9417ZM44.3432 16.9609C43.515 14.9704 42.3885 13.1352 41.0194 11.511V16.9609H44.3432ZM40.9029 11.1957V9.09697H38.8042C39.5519 9.74655 40.2534 10.448 40.9029 11.1957ZM38.6259 9.09697C39.4418 9.79668 40.2032 10.5581 40.9029 11.374V16.9609H33.0388V9.09697H38.6259ZM38.4889 8.98047C36.8647 7.61145 35.0294 6.48493 33.0388 5.65673V8.98047H38.4889ZM32.9223 5.60867C30.4954 4.61611 27.8406 4.06593 25.0582 4.05836V8.98047H32.9223V5.60867ZM17.0777 9.09697H24.9417V16.9609H17.0777V9.09697ZM32.9223 9.09697H25.0582V16.9609H32.9223V9.09697ZM16.9612 32.9219H9.09706V25.0579H16.9612V32.9219ZM17.0777 33.0384V40.9023H24.9417V33.0384H17.0777ZM24.9417 32.9219H17.0777V25.0579H24.9417V32.9219ZM25.0582 33.0384V40.9023H32.9223V33.0384H25.0582ZM32.9223 32.9219H25.0582V25.0579H32.9223V32.9219ZM40.9029 32.9219H33.0388V25.0579H40.9029V32.9219ZM17.0777 17.0774H24.9417V24.9414H17.0777V17.0774ZM9.09706 17.0774L16.9612 17.0774V24.9414H9.09706V17.0774ZM32.9223 17.0774H25.0582V24.9414H32.9223V17.0774ZM33.0388 24.9414V17.0774H40.9029V24.9414H33.0388Z" fill="#0A0D12" fill-opacity="0.6"/>
</g>
<path fill-rule="evenodd" clip-rule="evenodd" d="M15.6893 23.5904C15.5716 23.5741 15.4798 23.5587 15.4184 23.5485C15.3714 23.5406 15.3423 23.5358 15.3332 23.5358H13V18.8627H15.3332C15.3423 18.8627 15.3714 18.8676 15.4184 18.8755C15.9153 18.9585 18.4142 19.3762 20.4158 17.9415C21.8441 16.9167 22.8404 14.9175 22.8404 11.3392V9H27.5068V11.3392C27.5068 12.1732 27.463 12.9498 27.3809 13.673H22.8404V16.0122C22.8404 19.5905 21.8441 21.5897 20.4158 22.6146C19.6749 23.1456 18.8658 23.4229 18.1154 23.5572C17.1089 23.6634 16.2485 23.6345 15.6893 23.5904Z" fill="#184A4E"/>
<path fill-rule="evenodd" clip-rule="evenodd" d="M15.1976 32.8814H13V28.2031H15.3332C15.4373 28.2031 18.2245 28.8525 20.4158 27.2819C21.8441 26.257 22.8404 24.2578 22.8404 20.6795V18.3403H27.5068V20.6795C27.5068 26.4239 25.4259 29.4419 23.1305 31.0868C19.9776 33.3495 16.0994 32.9927 15.1976 32.8814Z" fill="#184A4E"/>
<path fill-rule="evenodd" clip-rule="evenodd" d="M22.9714 13.6731C22.8893 12.9499 22.8455 12.1733 22.8455 11.3392V9H27.5119V11.3392C27.5119 14.9175 28.5082 16.9167 29.9365 17.9415C31.9381 19.3762 34.437 18.9585 34.9338 18.8755C34.9809 18.8676 35.01 18.8627 35.019 18.8627H37.3523V23.5359H35.019C35.01 23.5359 34.9809 23.5407 34.9338 23.5486C34.8728 23.5588 34.7815 23.5741 34.6646 23.5903C34.1052 23.6344 33.2436 23.6635 32.2355 23.5571C31.4855 23.4226 30.677 23.1454 29.9365 22.6147C28.5082 21.5898 27.5119 19.5906 27.5119 16.0123V13.6731H22.9714Z" fill="#184A4E"/>
<path fill-rule="evenodd" clip-rule="evenodd" d="M35.1547 32.8814C34.2529 32.9927 30.3747 33.3495 27.2218 31.0868C24.9264 29.4419 22.8455 26.4239 22.8455 20.6795V18.3403H27.5119V20.6795C27.5119 24.2578 28.5082 26.257 29.9365 27.2819C32.1278 28.8525 34.915 28.2031 35.0191 28.2031H37.3523V32.8814H35.1547Z" fill="#184A4E"/>
<path d="M27.505 9H22.8374V39.4901H27.505V9Z" fill="#184A4E"/>
<path fill-rule="evenodd" clip-rule="evenodd" d="M32.5607 35.8389L32.5545 37.4427L32.5854 40.5176H17.7782V35.8389H32.5607Z" fill="#184A4E"/>
</g>
<defs>
<clipPath id="clip0_255_4228">
<rect x="1" y="1" width="48" height="48" rx="8" fill="white"/>
</clipPath>
<clipPath id="clip1_255_4228">
<rect width="48" height="48" fill="white" transform="translate(1 1)"/>
</clipPath>
</defs>
</svg>
